<mxfile host="app.diagrams.net" agent="Mozilla/5.0 (X11; Linux x86_64) AppleWebKit/537.36 (KHTML, like Gecko) Chrome/128.0.0.0 Safari/537.36" version="25.0.1">
  <diagram name="Page-1" id="FLPyzNdCS5SrpL3AEMhr">
    <mxGraphModel dx="940" dy="579" grid="1" gridSize="10" guides="1" tooltips="1" connect="1" arrows="1" fold="1" page="1" pageScale="1" pageWidth="850" pageHeight="1100" math="1" shadow="0">
      <root>
        <mxCell id="0" />
        <mxCell id="1" parent="0" />
        <mxCell id="dQlW-KFLKV-VQPzgSJSX-3" value="" style="endArrow=classic;html=1;rounded=0;exitX=0.993;exitY=0.167;exitDx=0;exitDy=0;exitPerimeter=0;strokeColor=#E60073;strokeWidth=2;" parent="1" edge="1">
          <mxGeometry width="50" height="50" relative="1" as="geometry">
            <mxPoint x="189.16000000000008" y="284.03999999999996" as="sourcePoint" />
            <mxPoint x="510" y="284" as="targetPoint" />
          </mxGeometry>
        </mxCell>
        <mxCell id="dQlW-KFLKV-VQPzgSJSX-4" value="" style="endArrow=classic;html=1;rounded=0;strokeColor=#009900;strokeWidth=2;" parent="1" edge="1">
          <mxGeometry width="50" height="50" relative="1" as="geometry">
            <mxPoint x="400" y="344" as="sourcePoint" />
            <mxPoint x="510" y="344" as="targetPoint" />
          </mxGeometry>
        </mxCell>
        <mxCell id="dQlW-KFLKV-VQPzgSJSX-12" value="&lt;font style=&quot;font-size: 18px;&quot;&gt;$$In_1$$&lt;/font&gt;" style="text;html=1;align=center;verticalAlign=middle;whiteSpace=wrap;rounded=0;" parent="1" vertex="1">
          <mxGeometry x="140" y="260" width="60" height="34" as="geometry" />
        </mxCell>
        <mxCell id="dQlW-KFLKV-VQPzgSJSX-13" value="&lt;font style=&quot;font-size: 18px;&quot;&gt;$$In_2$$&lt;/font&gt;" style="text;html=1;align=center;verticalAlign=middle;whiteSpace=wrap;rounded=0;" parent="1" vertex="1">
          <mxGeometry x="140" y="329" width="60" height="30" as="geometry" />
        </mxCell>
        <mxCell id="dQlW-KFLKV-VQPzgSJSX-20" value="" style="endArrow=none;html=1;rounded=0;strokeWidth=2;strokeColor=#E60073;" parent="1" target="dQlW-KFLKV-VQPzgSJSX-53" edge="1">
          <mxGeometry width="50" height="50" relative="1" as="geometry">
            <mxPoint x="280" y="284" as="sourcePoint" />
            <mxPoint x="430" y="464" as="targetPoint" />
          </mxGeometry>
        </mxCell>
        <mxCell id="dQlW-KFLKV-VQPzgSJSX-24" value="" style="endArrow=none;html=1;rounded=0;strokeWidth=2;strokeColor=#CC6600;entryX=0;entryY=0.5;entryDx=0;entryDy=0;exitX=0.25;exitY=0;exitDx=0;exitDy=0;" parent="1" source="dQlW-KFLKV-VQPzgSJSX-61" target="dQlW-KFLKV-VQPzgSJSX-52" edge="1">
          <mxGeometry width="50" height="50" relative="1" as="geometry">
            <mxPoint x="280" y="344" as="sourcePoint" />
            <mxPoint x="420" y="284" as="targetPoint" />
          </mxGeometry>
        </mxCell>
        <mxCell id="dQlW-KFLKV-VQPzgSJSX-28" value="&lt;font style=&quot;font-size: 18px;&quot;&gt;$$Out_1 = In_1 + W_N^m In_2$$&lt;/font&gt;" style="text;html=1;align=center;verticalAlign=middle;whiteSpace=wrap;rounded=0;" parent="1" vertex="1">
          <mxGeometry x="517" y="272" width="203" height="30" as="geometry" />
        </mxCell>
        <mxCell id="dQlW-KFLKV-VQPzgSJSX-52" value="&lt;font style=&quot;font-size: 23px;&quot;&gt;+&lt;/font&gt;" style="ellipse;whiteSpace=wrap;html=1;aspect=fixed;gradientColor=none;fillColor=#7EA6E0;" parent="1" vertex="1">
          <mxGeometry x="428" y="274" width="20" height="20" as="geometry" />
        </mxCell>
        <mxCell id="dQlW-KFLKV-VQPzgSJSX-53" value="&lt;font style=&quot;font-size: 23px;&quot;&gt;+&lt;/font&gt;" style="ellipse;whiteSpace=wrap;html=1;aspect=fixed;gradientColor=none;fillColor=#7EA6E0;" parent="1" vertex="1">
          <mxGeometry x="428" y="334" width="20" height="20" as="geometry" />
        </mxCell>
        <mxCell id="dQlW-KFLKV-VQPzgSJSX-60" value="" style="endArrow=none;html=1;rounded=0;exitX=0.993;exitY=0.167;exitDx=0;exitDy=0;exitPerimeter=0;strokeColor=#009900;strokeWidth=2;endFill=0;" parent="1" target="dQlW-KFLKV-VQPzgSJSX-37" edge="1">
          <mxGeometry width="50" height="50" relative="1" as="geometry">
            <mxPoint x="189.83999999999997" y="343" as="sourcePoint" />
            <mxPoint x="510" y="343" as="targetPoint" />
          </mxGeometry>
        </mxCell>
        <mxCell id="dQlW-KFLKV-VQPzgSJSX-37" value="&lt;font style=&quot;background-color: rgb(51, 255, 51);&quot; color=&quot;#ff0000&quot;&gt;$$W_N^{(m+N/2)}$$&lt;/font&gt;" style="text;html=1;align=center;verticalAlign=middle;whiteSpace=wrap;rounded=0;" parent="1" vertex="1">
          <mxGeometry x="320" y="336.34" width="70" height="13.33" as="geometry" />
        </mxCell>
        <mxCell id="dQlW-KFLKV-VQPzgSJSX-62" value="" style="endArrow=none;html=1;rounded=0;strokeWidth=2;strokeColor=#CC6600;entryX=0;entryY=0.5;entryDx=0;entryDy=0;" parent="1" target="dQlW-KFLKV-VQPzgSJSX-61" edge="1">
          <mxGeometry width="50" height="50" relative="1" as="geometry">
            <mxPoint x="280" y="344" as="sourcePoint" />
            <mxPoint x="428" y="284" as="targetPoint" />
          </mxGeometry>
        </mxCell>
        <mxCell id="dQlW-KFLKV-VQPzgSJSX-61" value="&lt;font style=&quot;background-color: rgb(51, 255, 51);&quot; color=&quot;#ff0000&quot;&gt;$$W_N^{m}$$&lt;/font&gt;" style="text;html=1;align=center;verticalAlign=middle;whiteSpace=wrap;rounded=0;" parent="1" vertex="1">
          <mxGeometry x="382" y="297" width="38" height="13.33" as="geometry" />
        </mxCell>
        <mxCell id="dQlW-KFLKV-VQPzgSJSX-63" value="&lt;font style=&quot;font-size: 18px;&quot;&gt;$$Out_2 = In_1 + W_N^{(m+N/2)} In_2~~$$&lt;/font&gt;" style="text;html=1;align=center;verticalAlign=middle;whiteSpace=wrap;rounded=0;" parent="1" vertex="1">
          <mxGeometry x="500" y="328" width="280" height="30" as="geometry" />
        </mxCell>
      </root>
    </mxGraphModel>
  </diagram>
</mxfile>
